# xmcd
#
# Track frame offsets: 
#        150
#        11869
#        23325
#        35959
#        47716
#        62311
#        73501
#        84150
#        96426
#        107460
#        119450
#        128915
#        139394
#        153134
#        163061
#        174003
#        185058
#        196329
#        207173
#        216625
#        229290
#        242341
#        254867
#        267551
#
# Disc length: 3710 seconds
#
# Revision: 2
# Processed by: cddbd v1.4PL0 Copyright (c) Steve Scherf et al.
# Submitted via: ExactAudioCopy v0.90b3
#
DISCID=5b0e7c18
DTITLE=George Jones - 24 Greatest Gospel Hits
DYEAR=1900
DGENRE=Country
TTITLE0=Small Time Laboring Man
TTITLE1=Wandering Soul
TTITLE2=Taggin' Along
TTITLE3=Bringin' It Home
TTITLE4=Family Bible
TTITLE5=Old Brush Arbors
TTITLE6=Won't It Be Wonderful There
TTITLE7=I'll Fly Away
TTITLE8=Where We Never Grow Old
TTITLE9=Take The World But Give Me Jesus
TTITLE10=Boat Of Life
TTITLE11=The Good Ole Bible
TTITLE12=Will There Be Stars In My Crown
TTITLE13=If You Believe
TTITLE14=How Beautiful Heaven Must Be
TTITLE15=Leaning On The Everlasting Arms
TTITLE16=Lord You've Been Mighty Good To Me
TTITLE17=Will The Circle Be Unbroken
TTITLE18=If You Want To Wear A Crown
TTITLE19=Flowers For Mama
TTITLE20=The Old Rugged Cross
TTITLE21=The Unclouded Day
TTITLE22=Sweeter Than The Flowers
TTITLE23=Cup Of Loneliness
EXTD=
EXTT0=
EXTT1=
EXTT2=
EXTT3=
EXTT4=
EXTT5=
EXTT6=
EXTT7=
EXTT8=
EXTT9=
EXTT10=
EXTT11=
EXTT12=
EXTT13=
EXTT14=
EXTT15=
EXTT16=
EXTT17=
EXTT18=
EXTT19=
EXTT20=
EXTT21=
EXTT22=
EXTT23=
PLAYORDER=
